<svg xmlns="http://www.w3.org/2000/svg" xmlns:xlink="http://www.w3.org/1999/xlink" viewBox="0 0 126 179">
<defs>
<style>.cls-1{isolation:isolate;}.cls-2{mix-blend-mode:multiply;opacity:0.6;}
#group {
    filter: drop-shadow(0px 0px 2px rgba(0, 0, 0, 0.5));
}
.RW_on{
    fill:url(#linear-gradient);
    animation: rotate 3s ease-in-out infinite alternate;
}
@keyframes rotate {
    0% {clip-path: inset(0% 0% 0% 0% round 2px 2px)}
    100% {clip-path: inset(0% 49.5% 0% 49.5% round 0% 0%)}
}
#paddle_off {
    fill: url(#linear-gradient);
}
#axe_off {
    fill: url(#linear-gradient-2);
}
.axe {
    fill:url(#linear-gradient-2);
    animation: rotate-axes 6s linear infinite ;
}
@keyframes rotate-axes {
    0%   {clip-path: polygon(0% 0%, 100% 0%, 100% 94.5%, 100% 94.5%, 100% 94.5%, 100% 94.5%, 100%  100%, 0%  100%) }
    43%  {clip-path: polygon(0% 0%, 100% 0%, 100% 94.5%, 100% 94.5%, 100% 94.5%,  55% 94.5%,  55%  100%, 0%  100%) }
    44%  {clip-path: polygon(0% 0%, 100% 0%, 100%  100%, 100%  100%, 100% 94.5%,  45% 94.5%,  45%  100%, 0%  100%) }
    50%  {clip-path: polygon(0% 0%, 100% 0%, 100%  100%,  55%  100%,  55% 94.5%,  45% 94.5%,  45%  100%, 0%  100%) }
    56%  {clip-path: polygon(0% 0%, 100% 0%, 100%  100%,  55%  100%,  55% 94.5%,   0% 94.5%,   0%  100%, 0%  100%) }
    57%  {clip-path: polygon(0% 0%, 100% 0%, 100%  100%,  55%  100%,  55% 94.5%,   0% 94.5%,   0% 94.5%, 0% 94.5%) }
    100% {clip-path: polygon(0% 0%, 100% 0%, 100%  100%,   0%  100%,   0% 94.5%,   0% 94.5%,   0% 94.5%, 0% 94.5%) }
}
.cls-5{fill:url(#linear-gradient-3);}.cls-6{fill:url(#linear-gradient-4);}.cls-7{fill:url(#linear-gradient-5);}.cls-8{fill:url(#linear-gradient-6);}.cls-9{fill:#edffff;}.cls-10{fill:none;stroke:#333;stroke-linecap:round;stroke-miterlimit:10;stroke-width:2px;opacity:0.51;}.cls-11{fill:url(#linear-gradient-7);}.cls-12{fill:url(#linear-gradient-8);}.cls-13{fill:url(#linear-gradient-9);}.cls-14{fill:url(#linear-gradient-10);}.cls-15{fill:url(#linear-gradient-11);}.cls-16{fill:url(#linear-gradient-12);}.cls-17{fill:url(#linear-gradient-13);}.cls-18{fill:url(#linear-gradient-14);}.cls-19{fill:url(#linear-gradient-15);}.cls-20{fill:url(#linear-gradient-16);}.cls-21{fill:url(#linear-gradient-17);}.cls-22{fill:url(#linear-gradient-18);}.cls-23{fill:url(#linear-gradient-19);}.cls-24{opacity:0.17;}.cls-25{fill:url(#linear-gradient-20);}.cls-26{fill:url(#linear-gradient-21);}</style>
<linearGradient id="linear-gradient" x1="34.49" y1="187.85" x2="90.9" y2="131.44" gradientUnits="userSpaceOnUse">
<stop offset="0" stop-color="#6a6c6e"/>
<stop offset="0.03" stop-color="#3e3f40"/>
<stop offset="0.32" stop-color="#d9dadb"/>
<stop offset="0.33" stop-color="#d6d7d8"/>
<stop offset="0.48" stop-color="#a4a6a7"/>
<stop offset="0.54" stop-color="#a8a8a8"/>
<stop offset="0.59" stop-color="#8e8e8e"/>
<stop offset="0.68" stop-color="#747577"/>
<stop offset="0.7" stop-color="#707172"/>
<stop offset="0.74" stop-color="#686868"/>
<stop offset="0.82" stop-color="#939393"/>
<stop offset="0.93" stop-color="#5b5b5b"/>
<stop offset="1" stop-color="#373839"/>
</linearGradient>
<linearGradient id="linear-gradient-2" x1="61.22" y1="97.77" x2="64.22" y2="97.77" gradientUnits="userSpaceOnUse">
<stop offset="0.11" stop-color="#6c7073"/>
<stop offset="0.24" stop-color="#3e3f40"/>
<stop offset="0.48" stop-color="#fff"/>
<stop offset="0.77" stop-color="#454648"/>
<stop offset="1" stop-color="#373839"/>
</linearGradient>
<linearGradient id="linear-gradient-3" x1="277.71" y1="-187.47" x2="300.27" y2="-187.47" gradientTransform="translate(-77.79 -264.81) rotate(90)" xlink:href="#linear-gradient"/>
<linearGradient id="linear-gradient-4" x1="277.71" y1="-168.03" x2="300.27" y2="-168.03" gradientTransform="translate(-77.79 -264.81) rotate(90)" xlink:href="#linear-gradient"/>
<linearGradient id="linear-gradient-5" x1="282.22" y1="-151.39" x2="295.76" y2="-151.39" gradientTransform="translate(-77.79 -264.81) rotate(90)" xlink:href="#linear-gradient"/>
<linearGradient id="linear-gradient-6" x1="298.54" y1="-131.7" x2="281.13" y2="-149.11" gradientTransform="translate(-77.79 -264.81) rotate(90)" gradientUnits="userSpaceOnUse">
<stop offset="0" stop-color="#6a6c6e"/>
<stop offset="0.18" stop-color="#747577"/>
<stop offset="0.46" stop-color="#d9dadb"/>
<stop offset="0.55" stop-color="#cecfd1"/>
<stop offset="0.81" stop-color="#7f8082"/>
<stop offset="0.81" stop-color="#7d7e80"/>
<stop offset="0.93" stop-color="#646565"/>
<stop offset="1" stop-color="#5b5b5b"/>
</linearGradient>
<linearGradient id="linear-gradient-7" x1="276.13" y1="-171.51" x2="276.59" y2="-171.51" gradientTransform="translate(-78.6 -263.41) rotate(90)" gradientUnits="userSpaceOnUse">
<stop offset="0" stop-color="#3e3f40"/>
<stop offset="0.08" stop-color="#6a6c6e"/>
<stop offset="0.26" stop-color="#d9dadb"/>
<stop offset="0.27" stop-color="#d6d7d8"/>
<stop offset="0.36" stop-color="#a4a6a7"/>
<stop offset="0.49" stop-color="#a8a8a8"/>
<stop offset="0.54" stop-color="#8e8e8e"/>
<stop offset="0.68" stop-color="#747577"/>
<stop offset="0.7" stop-color="#707172"/>
<stop offset="0.74" stop-color="#686868"/>
<stop offset="0.82" stop-color="#939393"/>
<stop offset="0.93" stop-color="#5b5b5b"/>
<stop offset="1" stop-color="#373839"/>
</linearGradient>
<linearGradient id="linear-gradient-8" x1="279.54" y1="-171.73" x2="280.01" y2="-171.73" gradientTransform="translate(-79 -265.9) rotate(89.96)" xlink:href="#linear-gradient-7"/>
<linearGradient id="linear-gradient-9" x1="282.09" y1="-171.77" x2="282.55" y2="-171.77" gradientTransform="matrix(0, 1, -1, 0, -79.08, -267.03)" xlink:href="#linear-gradient-7"/>
<linearGradient id="linear-gradient-10" x1="284.06" y1="-171.77" x2="284.53" y2="-171.77" gradientTransform="translate(-79.1 -267.14) rotate(89.95)" xlink:href="#linear-gradient-7"/>
<linearGradient id="linear-gradient-11" x1="285.63" y1="-171.76" x2="286.09" y2="-171.76" gradientTransform="translate(-79.1 -266.5) rotate(89.95)" xlink:href="#linear-gradient-7"/>
<linearGradient id="linear-gradient-12" x1="286.92" y1="-171.74" x2="287.39" y2="-171.74" gradientTransform="translate(-79.09 -265.35) rotate(89.95)" xlink:href="#linear-gradient-7"/>
<linearGradient id="linear-gradient-13" x1="288.07" y1="-171.72" x2="288.54" y2="-171.72" gradientTransform="matrix(0, 1, -1, 0, -79.07, -263.95)" xlink:href="#linear-gradient-7"/>
<linearGradient id="linear-gradient-14" x1="289.22" y1="-171.7" x2="289.69" y2="-171.7" gradientTransform="translate(-79.04 -262.55) rotate(89.95)" xlink:href="#linear-gradient-7"/>
<linearGradient id="linear-gradient-15" x1="290.5" y1="-171.67" x2="290.97" y2="-171.67" gradientTransform="translate(-79.01 -261.39) rotate(89.95)" xlink:href="#linear-gradient-7"/>
<linearGradient id="linear-gradient-16" x1="292.04" y1="-171.64" x2="292.51" y2="-171.64" gradientTransform="translate(-78.96 -260.73) rotate(89.95)" xlink:href="#linear-gradient-7"/>
<linearGradient id="linear-gradient-17" x1="293.93" y1="-171.63" x2="294.39" y2="-171.63" gradientTransform="translate(-78.94 -260.77) rotate(89.95)" xlink:href="#linear-gradient-7"/>
<linearGradient id="linear-gradient-18" x1="296.35" y1="-171.55" x2="296.81" y2="-171.55" gradientTransform="matrix(0, 1, -1, 0, -78.82, -261.83)" xlink:href="#linear-gradient-7"/>
<linearGradient id="linear-gradient-19" x1="299.23" y1="-171.28" x2="299.7" y2="-171.28" gradientTransform="translate(-78.35 -264.02) rotate(90)" xlink:href="#linear-gradient-7"/>
<linearGradient id="linear-gradient-20" x1="306.54" y1="-133.7" x2="293.13" y2="-147.11" gradientTransform="translate(-77.79 -264.81) rotate(90)" gradientUnits="userSpaceOnUse">
<stop offset="0" stop-color="#6a6c6e"/><stop offset="0.32" stop-color="#d9dadb"/><stop offset="0.5" stop-color="#a5a6a8"/>
<stop offset="0.68" stop-color="#747577"/><stop offset="0.85" stop-color="#646465"/><stop offset="1" stop-color="#5b5b5b"/>
</linearGradient><linearGradient id="linear-gradient-21" x1="59.84" y1="40.34" x2="65.48" y2="40.34" xlink:href="#linear-gradient"/>
</defs><g class="cls-1">
<g id="Layer_2" data-name="Layer 2"><g id="group" data-name="Layer 1">
<rect class="RW_on" x="12.48" y="152.81" width="100.42" height="13.67" rx="1.09"/>
<rect class="RW_off" id="paddle_off" x="12.48" y="152.81" width="100.42" height="13.67" rx="1.09"/>
<path class="axe" d="M64.22,158.26c0,1.84-3,1.84-3,0V35.89h3Z"/>
<path class="RW_off" id="axe_off" d="M64.22,158.26c0,1.84-3,1.84-3,0V35.89h3Z"/>
<path class="cls-5" d="M113.71,29.17v-10a6.28,6.28,0,0,0-6.28-6.28h-1.77V35.45h1.77A6.28,6.28,0,0,0,113.71,29.17Z"/>
<path class="cls-6" d="M105.27,35.45V12.89h-27A3.09,3.09,0,0,0,75.2,16V32.37a3.08,3.08,0,0,0,3.09,3.08Z"/>
<rect class="cls-7" x="71.99" y="17.41" width="3.21" height="13.54"/>
<path class="cls-8" d="M53.13,33V18.28A2.89,2.89,0,0,1,56,15.39H69.2a2.89,2.89,0,0,1,2.89,2.89V33Z"/>
<path class="cls-9" d="M53.05,17.06l0,.53c0,.34,0,.82,0,1.4s0,1.26,0,2,0,1.5,0,2.28,0,1.55,0,2.27,0,1.41,0,2l0,1.41,0,.53v-.53l0-1.41c0-.58,0-1.26,0-2s0-1.5,0-2.27,0-1.55,0-2.28,0-1.4,0-2,0-1.06,0-1.4Z"/>
<path class="cls-9" d="M75.2,15.26v.53c0,.34,0,.82,0,1.4s0,1.26,0,2,0,1.5,0,2.28,0,1.55,0,2.27,0,1.41,0,2l0,1.4v.54l0-.54,0-1.4c0-.58,0-1.26,0-2s0-1.5,0-2.27,0-1.55,0-2.28,0-1.41,0-2,0-1.06,0-1.4Z"/>
<path class="cls-9" d="M105.74,15.65v.53c0,.34,0,.83,0,1.41s0,1.26,0,2,0,1.51,0,2.28,0,1.55,0,2.28,0,1.4,0,2l0,1.41v.53l0-.53,0-1.41c0-.58,0-1.26,0-2s0-1.5,0-2.28,0-1.55,0-2.28,0-1.4,0-2,0-1.07,0-1.41Z"/>
<path class="cls-9" d="M66.59,15.44l-.54,0-1.4,0-2,0H58.11l-2,0-1.4,0-.53,0h.53l1.4,0,2,0h4.55l2,0,1.4,0Z"/>
<path class="cls-9" d="M66.59,33.06l-.54,0-1.4,0-2,0H58.11l-2,0-1.4,0-.53,0h.53l1.4,0,2,0h4.55l2,0,1.4,0Z"/>
<line class="cls-10" x1="102.76" y1="13.27" x2="82.79" y2="13.27"/>
<rect class="cls-11" x="82.66" y="12.72" width="20.5" height="0.47"/>
<line class="cls-10" x1="102.76" y1="14.07" x2="82.79" y2="14.08"/>
<rect class="cls-12" x="82.66" y="13.53" width="20.5" height="0.47"/>
<line class="cls-10" x1="102.76" y1="15.46" x2="82.79" y2="15.47"/>
<rect class="cls-13" x="82.66" y="14.91" width="20.5" height="0.47"/>
<line class="cls-10" x1="102.76" y1="17.31" x2="82.8" y2="17.33"/>
<rect class="cls-14" x="82.67" y="16.77" width="20.5" height="0.47"/>
<line class="cls-10" x1="102.76" y1="19.52" x2="82.8" y2="19.53"/>
<rect class="cls-15" x="82.67" y="18.97" width="20.5" height="0.47"/>
<line class="cls-10" x1="102.76" y1="21.95" x2="82.8" y2="21.97"/>
<rect class="cls-16" x="82.67" y="21.41" width="20.5" height="0.47"/>
<line class="cls-10" x1="102.76" y1="24.51" x2="82.8" y2="24.53"/>
<rect class="cls-17" x="82.67" y="23.97" width="20.5" height="0.47"/>
<line class="cls-10" x1="102.77" y1="27.06" x2="82.8" y2="27.08"/>
<rect class="cls-18" x="82.67" y="26.52" width="20.5" height="0.47"/>
<line class="cls-10" x1="102.77" y1="29.5" x2="82.81" y2="29.52"/>
<rect class="cls-19" x="82.68" y="28.96" width="20.5" height="0.47"/>
<line class="cls-10" x1="102.77" y1="31.7" x2="82.81" y2="31.72"/>
<rect class="cls-20" x="82.68" y="31.16" width="20.5" height="0.47"/>
<line class="cls-10" x1="102.77" y1="33.56" x2="82.81" y2="33.58"/>
<rect class="cls-21" x="82.68" y="33.02" width="20.5" height="0.47"/>
<line class="cls-10" x1="102.77" y1="34.95" x2="82.81" y2="34.96"/>
<rect class="cls-22" x="82.68" y="34.41" width="20.5" height="0.47"/>
<line class="cls-10" x1="102.77" y1="35.76" x2="82.81" y2="35.76"/>
<rect class="cls-23" x="82.68" y="35.21" width="20.5" height="0.47"/>
<path class="cls-24" d="M73.67,17.43H75.2V31H72s2.41-2.85,2.45-8.2S73.67,17.43,73.67,17.43Z"/>
<path class="cls-25" d="M50.3,36.12V34.61A1.65,1.65,0,0,1,52,33H73.27a1.65,1.65,0,0,1,1.65,1.65v1.51Z"/>
<path class="cls-26" d="M64.62,44.56H60.7a.86.86,0,0,1-.86-.86V36.12h5.64V43.7A.86.86,0,0,1,64.62,44.56Z"/>
</g>
</g>
</g>
</svg>